<svg width="70" height="71" viewBox="0 0 70 71" fill="none" xmlns="http://www.w3.org/2000/svg">
<rect y="0.689941" width="70" height="70" rx="12" fill="white"/>
<mask id="mask0_135_662" style="mask-type:luminance" maskUnits="userSpaceOnUse" x="17" y="14" width="35" height="44">
<path d="M52 14.6899H17V57.5258H52V14.6899Z" fill="white"/>
</mask>
<g mask="url(#mask0_135_662)">
<path d="M42.8927 29.2974C42.8927 29.2974 43.1131 46.0312 43.3846 54.7672C43.4302 56.1715 20.5053 49.9129 17.7612 49.1253C25.4655 42.4749 42.8927 29.2974 42.8927 29.2974Z" fill="url(#paint0_linear_135_662)"/>
<path d="M42.8926 29.2972C42.8926 29.2972 42.8926 29.2972 17.7453 49.1252C-7.402 68.9531 17.687 49.1693 17.6511 49.177C17.6152 49.1848 17.5777 49.1818 17.5435 49.1686C17.1076 27.8641 17.0958 27.6029 17.0958 22.9436C17.0958 21.7356 18.338 22.0368 18.338 22.0368L42.8926 29.2972Z" fill="url(#paint1_linear_135_662)"/>
<path d="M50.2062 21.9839C50.2062 21.9839 50.4266 38.7177 50.6981 47.4538C50.7437 48.858 27.8188 42.5994 25.0747 41.8119C32.779 35.1614 50.2062 21.9839 50.2062 21.9839Z" fill="#2AA852"/>
<path d="M50.2061 21.9837C50.2061 21.9837 50.2061 21.9837 25.0588 41.8117C-0.0885238 61.6396 25.0005 41.8558 24.9646 41.8635C24.9286 41.8713 24.8912 41.8683 24.857 41.8551C24.421 20.5506 24.4093 20.2894 24.4093 15.6301C24.4093 14.4221 25.6515 14.7233 25.6515 14.7233L50.2061 21.9837Z" fill="#256A45"/>
</g>
<defs>
<linearGradient id="paint0_linear_135_662" x1="26.4032" y1="42.3767" x2="43.642" y2="60.1379" gradientUnits="userSpaceOnUse">
<stop offset="0.317708" stop-color="#F40000"/>
<stop offset="1" stop-color="#A30000"/>
</linearGradient>
<linearGradient id="paint1_linear_135_662" x1="26.6642" y1="26.9661" x2="18.5672" y2="46.5557" gradientUnits="userSpaceOnUse">
<stop offset="0.421875" stop-color="#EAE203"/>
<stop offset="1" stop-color="#998812"/>
</linearGradient>
</defs>
</svg>
