<svg width="33" height="36" viewBox="0 0 33 36" fill="none" xmlns="http://www.w3.org/2000/svg">
<path d="M32.25 36L19.913 2.63792C19.3267 1.05258 17.8153 0 16.125 0C14.4347 0 12.9233 1.05257 12.337 2.63792L0 36C3.59145 36 6.78837 33.7241 7.96394 30.3305L15.9375 7.3125H16.3125L24.2861 30.3305C25.4616 33.7241 28.6586 36 32.25 36Z" fill="black"/>
<path d="M16.0875 21.7799C16.0875 24.6504 13.7605 26.9774 10.89 26.9774C13.7605 26.9774 16.0875 29.3044 16.0875 32.1749C16.0875 29.3044 18.4145 26.9774 21.285 26.9774C18.4145 26.9774 16.0875 24.6504 16.0875 21.7799Z" fill="black"/>
</svg>
